<svg width="100" height="100" viewBox="0 0 100 100" fill="none" xmlns="http://www.w3.org/2000/svg">
<rect x="0.3" y="0.3" width="99.4" height="99.4" rx="24.7" fill="white"/>
<rect x="0.3" y="0.3" width="99.4" height="99.4" rx="24.7" stroke="#E6E6E6" stroke-width="0.6"/>
<path d="M18.5835 62.9444C17.8554 68.2496 20.8074 73.3508 25.7688 75.3656C33.2803 78.416 41.3371 80 49.5 80C57.6629 80 65.7197 78.416 73.2312 75.3656C78.1926 73.3508 81.1446 68.2496 80.4165 62.9444C79.314 54.9106 76.6627 47.1374 72.5804 40.0652C68.4961 32.9895 63.086 26.8002 56.6732 21.8201C52.4455 18.5369 46.5545 18.5369 42.3268 21.8201C35.914 26.8002 30.5039 32.9895 26.4196 40.0652C22.3373 47.1374 19.686 54.9106 18.5835 62.9444Z" fill="black"/>
</svg>
